# xmcd CD database file
#
# Track frame offsets:
#	150
#	9207
#	24157
#	39085
#	53975
#	68830
#	85770
#	96420
#	112287
#	130915
#	148760
#	166630
#	180647
#	201402
#	217977
#
# Disc length: 3051 seconds
#
# Revision: 0
# Processed by: cddbd v1.5.1PL0 Copyright (c) Steve Scherf et al.
# Submitted via: CDex 1.51
#
DISCID=c70be90f
DTITLE=ROLLY presents - Ｊシャンソンの秘密　Ｄｉｓｃ２
DYEAR=1900
DGENRE=Chanson
TTITLE0=モンテカルロ珈琲店（小さな喫茶店）　/　あがた森魚
TTITLE1=リラの花咲く頃　/　高 英男
TTITLE2=ラ・メール　/　高 英男
TTITLE3=アデュー　/　高 英男
TTITLE4=ラ・ヴィ・アン・ローズ　/　高 英男
TTITLE5=リヤン　/　石井 好子
TTITLE6=ソナタ　/　石井 好子
TTITLE7=かもめ　/　石井 好子
TTITLE8=首吊り男　/　戸川 昌子
TTITLE9=夜は恋人　/　中原 美紗緒
TTITLE10=あまい囁き　/　中村 晃子 ＆ 細川 俊之
TTITLE11=１８才の彼　/　岩下 志麻
TTITLE12=希望　/　岸 洋子
TTITLE13=愛の讃歌 /　岸 洋子
TTITLE14=あなたに首ったけ /　ＲＯＬＬＹ
EXTD=
EXTT0=
EXTT1=
EXTT2=
EXTT3=
EXTT4=
EXTT5=
EXTT6=
EXTT7=
EXTT8=
EXTT9=
EXTT10=
EXTT11=
EXTT12=
EXTT13=
EXTT14=
PLAYORDER=
